<?xml version="1.0" encoding="UTF-8"?><svg xmlns="http://www.w3.org/2000/svg" xmlns:xlink="http://www.w3.org/1999/xlink" contentScriptType="text/ecmascript" width="375" zoomAndPan="magnify" contentStyleType="text/css" viewBox="0 0 375 374.999991" height="374.999991" preserveAspectRatio="xMidYMid meet" version="1.0"><defs><clipPath id="clip-0"><path d="M 146.914062 127.53125 L 227.914062 127.53125 L 227.914062 197.234375 L 146.914062 197.234375 Z M 146.914062 127.53125 " clip-rule="nonzero"/></clipPath></defs><g clip-path="url(#clip-0)"><path fill="rgb(59.999084%, 88.62915%, 39.608765%)" d="M 227.914062 140.644531 C 227.914062 139.164062 226.71875 137.964844 225.25 137.964844 L 165.371094 137.964844 L 162.695312 129.367188 C 162.347656 128.25 161.316406 127.488281 160.152344 127.488281 L 149.574219 127.488281 C 148.105469 127.488281 146.914062 128.6875 146.914062 130.167969 C 146.914062 131.648438 148.105469 132.847656 149.574219 132.847656 L 158.195312 132.847656 L 170.082031 171.011719 C 165.304688 171.828125 161.65625 176.019531 161.65625 181.054688 C 161.65625 186.675781 166.203125 191.246094 171.789062 191.246094 L 173.78125 191.246094 C 174.90625 194.714844 178.148438 197.226562 181.96875 197.226562 C 185.789062 197.226562 189.03125 194.714844 190.15625 191.246094 L 200.765625 191.246094 C 201.890625 194.714844 205.132812 197.226562 208.953125 197.226562 C 212.773438 197.226562 216.015625 194.714844 217.140625 191.246094 L 222.644531 191.246094 C 224.117188 191.246094 225.308594 190.046875 225.308594 188.566406 C 225.308594 187.085938 224.117188 185.886719 222.644531 185.886719 L 217.140625 185.886719 C 216.015625 182.421875 212.773438 179.90625 208.953125 179.90625 C 205.132812 179.90625 201.890625 182.421875 200.765625 185.886719 L 190.15625 185.886719 C 189.03125 182.421875 185.789062 179.90625 181.96875 179.90625 C 178.148438 179.90625 174.90625 182.421875 173.78125 185.886719 L 171.789062 185.886719 C 169.140625 185.886719 166.984375 183.71875 166.984375 181.054688 C 166.984375 178.390625 169.140625 176.21875 171.789062 176.21875 C 172.117188 176.21875 172.433594 176.15625 172.722656 176.046875 C 173.019531 176.160156 173.332031 176.21875 173.660156 176.21875 L 216.949219 176.21875 C 218.160156 176.21875 219.222656 175.398438 219.527344 174.214844 L 227.824219 142.136719 C 227.921875 141.769531 227.933594 141.398438 227.878906 141.042969 C 227.898438 140.914062 227.914062 140.78125 227.914062 140.644531 Z M 208.953125 185.261719 C 210.765625 185.261719 212.238281 186.746094 212.238281 188.566406 C 212.238281 190.386719 210.765625 191.871094 208.953125 191.871094 C 207.144531 191.871094 205.667969 190.386719 205.667969 188.566406 C 205.667969 186.746094 207.140625 185.261719 208.953125 185.261719 Z M 181.96875 185.261719 C 183.78125 185.261719 185.253906 186.746094 185.253906 188.566406 C 185.253906 190.386719 183.78125 191.871094 181.96875 191.871094 C 180.15625 191.871094 178.683594 190.386719 178.683594 188.566406 C 178.683594 186.746094 180.15625 185.261719 181.96875 185.261719 Z M 170.53125 154.535156 L 219.113281 154.535156 L 217.886719 159.285156 L 172.011719 159.285156 Z M 222.015625 143.320312 L 220.5 149.175781 L 168.863281 149.175781 L 167.039062 143.320312 Z M 175.617188 170.863281 L 173.679688 164.640625 L 216.5 164.640625 L 214.890625 170.863281 Z M 175.617188 170.863281 " fill-opacity="1" fill-rule="nonzero"/></g></svg>